    <svg
      width="157"
      height="84"
      viewBox="0 0 157 84"
      fill="none"
      xmlns="http://www.w3.org/2000/svg"
    >
      <g filter="url(#filter0_d_75_1093)">
        <path
          d="M15.7687 56.0682V71H7.43343V36.0909H15.4959V49.625H15.7857C16.3766 48.0114 17.3425 46.75 18.6834 45.8409C20.0357 44.9318 21.6891 44.4773 23.6437 44.4773C25.4846 44.4773 27.0868 44.8864 28.4505 45.7045C29.8141 46.5114 30.8709 47.6534 31.6209 49.1307C32.3823 50.608 32.7573 52.3352 32.7459 54.3125V71H24.4107V55.9489C24.4221 54.4943 24.0584 53.358 23.3198 52.5398C22.5812 51.7216 21.5414 51.3125 20.2005 51.3125C19.3255 51.3125 18.5527 51.5057 17.8823 51.892C17.2232 52.267 16.7062 52.8068 16.3312 53.5114C15.9675 54.2159 15.78 55.0682 15.7687 56.0682ZM45.3297 71.4432C43.6593 71.4432 42.1763 71.1648 40.8809 70.608C39.5968 70.0398 38.5797 69.1875 37.8297 68.0511C37.0911 66.9034 36.7218 65.4659 36.7218 63.7386C36.7218 62.2841 36.9775 61.0568 37.4888 60.0568C38.0002 59.0568 38.7047 58.2443 39.6025 57.6193C40.5002 56.9943 41.5343 56.5227 42.7047 56.2045C43.8752 55.875 45.1252 55.6534 46.4547 55.5398C47.9434 55.4034 49.1422 55.2614 50.0513 55.1136C50.9604 54.9545 51.6195 54.733 52.0286 54.4489C52.4491 54.1534 52.6593 53.7386 52.6593 53.2045V53.1193C52.6593 52.2443 52.3581 51.5682 51.7559 51.0909C51.1536 50.6136 50.3411 50.375 49.3184 50.375C48.2161 50.375 47.3297 50.6136 46.6593 51.0909C45.9888 51.5682 45.5627 52.2273 45.3809 53.0682L37.6934 52.7955C37.9206 51.2045 38.5059 49.7841 39.4491 48.5341C40.4036 47.2727 41.7104 46.2841 43.3695 45.5682C45.04 44.8409 47.0456 44.4773 49.3866 44.4773C51.057 44.4773 52.5968 44.6761 54.0059 45.0739C55.415 45.4602 56.6422 46.0284 57.6877 46.7784C58.7331 47.517 59.54 48.4261 60.1081 49.5057C60.6877 50.5852 60.9775 51.8182 60.9775 53.2045V71H53.1366V67.3523H52.932C52.4661 68.2386 51.8695 68.9886 51.1422 69.6023C50.4263 70.2159 49.5797 70.6761 48.6025 70.983C47.6366 71.2898 46.5456 71.4432 45.3297 71.4432ZM47.9036 65.9886C48.8013 65.9886 49.6081 65.8068 50.3241 65.4432C51.0513 65.0795 51.6309 64.5795 52.0627 63.9432C52.4945 63.2955 52.7104 62.5455 52.7104 61.6932V59.2045C52.4718 59.3295 52.182 59.4432 51.8411 59.5455C51.5116 59.6477 51.1479 59.7443 50.7502 59.8352C50.3525 59.9261 49.9434 60.0057 49.5229 60.0739C49.1025 60.142 48.6991 60.2045 48.3127 60.2614C47.5286 60.3864 46.8581 60.5795 46.3013 60.8409C45.7559 61.1023 45.3354 61.4432 45.04 61.8636C44.7559 62.2727 44.6138 62.7614 44.6138 63.3295C44.6138 64.1932 44.9206 64.8523 45.5343 65.3068C46.1593 65.7614 46.9491 65.9886 47.9036 65.9886ZM66.0741 71V36.0909H74.4093V49.3011H74.5797C74.9206 48.5057 75.4036 47.7386 76.0286 47C76.665 46.2614 77.4718 45.6591 78.4491 45.1932C79.4377 44.7159 80.6195 44.4773 81.9945 44.4773C83.8127 44.4773 85.5116 44.9545 87.0911 45.9091C88.682 46.8636 89.9661 48.3352 90.9434 50.3239C91.9206 52.3125 92.4093 54.8466 92.4093 57.9261C92.4093 60.892 91.9377 63.375 90.9945 65.375C90.0627 67.375 88.8013 68.875 87.2104 69.875C85.6309 70.875 83.8752 71.375 81.9434 71.375C80.6252 71.375 79.4831 71.1591 78.5172 70.7273C77.5513 70.2955 76.7388 69.7273 76.0797 69.0227C75.432 68.3182 74.932 67.5625 74.5797 66.7557H74.3241V71H66.0741ZM74.2388 57.9091C74.2388 59.3182 74.4263 60.5455 74.8013 61.5909C75.1877 62.6364 75.7388 63.4489 76.4547 64.0284C77.182 64.5966 78.0513 64.8807 79.0627 64.8807C80.0854 64.8807 80.9547 64.5966 81.6706 64.0284C82.3866 63.4489 82.9263 62.6364 83.29 61.5909C83.665 60.5455 83.8525 59.3182 83.8525 57.9091C83.8525 56.5 83.665 55.2784 83.29 54.2443C82.9263 53.2102 82.3866 52.4091 81.6706 51.8409C80.9661 51.2727 80.0968 50.9886 79.0627 50.9886C78.04 50.9886 77.1706 51.267 76.4547 51.8239C75.7388 52.3807 75.1877 53.1761 74.8013 54.2102C74.4263 55.2443 74.2388 56.4773 74.2388 57.9091ZM96.7772 71V44.8182H105.112V71H96.7772ZM100.953 41.767C99.7829 41.767 98.7772 41.3807 97.9363 40.608C97.0954 39.8239 96.6749 38.8807 96.6749 37.7784C96.6749 36.6875 97.0954 35.7557 97.9363 34.983C98.7772 34.1989 99.7829 33.8068 100.953 33.8068C102.135 33.8068 103.141 34.1989 103.97 34.983C104.811 35.7557 105.232 36.6875 105.232 37.7784C105.232 38.8807 104.811 39.8239 103.97 40.608C103.141 41.3807 102.135 41.767 100.953 41.767ZM125.196 44.8182V50.9545H108.679V44.8182H125.196ZM112.139 38.5455H120.475V62.767C120.475 63.2784 120.554 63.6932 120.713 64.0114C120.884 64.3182 121.128 64.5398 121.446 64.6761C121.764 64.8011 122.145 64.8636 122.588 64.8636C122.906 64.8636 123.242 64.8352 123.594 64.7784C123.958 64.7102 124.23 64.6534 124.412 64.608L125.673 70.625C125.276 70.7386 124.713 70.8807 123.986 71.0511C123.27 71.2216 122.412 71.3295 121.412 71.375C119.458 71.4659 117.781 71.2386 116.384 70.6932C114.997 70.1364 113.935 69.2727 113.196 68.1023C112.469 66.9318 112.117 65.4602 112.139 63.6875V38.5455ZM151.979 52.8125L144.325 53.017C144.246 52.4716 144.03 51.9886 143.678 51.5682C143.325 51.1364 142.865 50.8011 142.297 50.5625C141.74 50.3125 141.093 50.1875 140.354 50.1875C139.388 50.1875 138.564 50.3807 137.882 50.767C137.212 51.1534 136.882 51.6761 136.894 52.3352C136.882 52.8466 137.087 53.2898 137.507 53.6648C137.939 54.0398 138.706 54.3409 139.808 54.5682L144.854 55.5227C147.468 56.0227 149.411 56.8523 150.683 58.0114C151.968 59.1705 152.615 60.7045 152.627 62.6136C152.615 64.4091 152.081 65.9716 151.024 67.3011C149.979 68.6307 148.547 69.6648 146.729 70.4034C144.911 71.1307 142.831 71.4943 140.49 71.4943C136.752 71.4943 133.803 70.7273 131.644 69.1932C129.496 67.6477 128.269 65.5795 127.962 62.9886L136.195 62.7841C136.377 63.7386 136.848 64.4659 137.61 64.9659C138.371 65.4659 139.343 65.7159 140.524 65.7159C141.593 65.7159 142.462 65.517 143.132 65.1193C143.803 64.7216 144.144 64.1932 144.155 63.5341C144.144 62.9432 143.882 62.4716 143.371 62.1193C142.86 61.7557 142.058 61.4716 140.968 61.267L136.399 60.3977C133.774 59.9205 131.82 59.0398 130.536 57.7557C129.252 56.4602 128.615 54.8125 128.627 52.8125C128.615 51.0625 129.081 49.5682 130.024 48.3295C130.968 47.0795 132.308 46.125 134.047 45.4659C135.786 44.8068 137.837 44.4773 140.2 44.4773C143.746 44.4773 146.541 45.2216 148.587 46.7102C150.632 48.1875 151.763 50.2216 151.979 52.8125Z"
          fill="white"
        />
        <rect
          x="5.29138"
          y="0.5"
          width="15"
          height="15"
          rx="3.5"
          fill="#18181B"
          stroke="#27272A"
        />
        <rect
          x="25.2914"
          y="0.5"
          width="15"
          height="15"
          rx="3.5"
          fill="#4C1D95"
          stroke="#6D28D9"
        />
        <rect
          x="45.2914"
          y="0.5"
          width="15"
          height="15"
          rx="3.5"
          fill="#5B21B6"
          stroke="#7C3AED"
        />
        <rect
          x="65.2914"
          y="0.5"
          width="15"
          height="15"
          rx="3.5"
          fill="#6D28D9"
          stroke="#8B5CF6"
        />
        <rect
          x="85.2914"
          y="0.5"
          width="15"
          height="15"
          rx="3.5"
          fill="#7C3AED"
          stroke="#A78BFA"
        />
        <rect
          x="105.291"
          y="0.5"
          width="15"
          height="15"
          rx="3.5"
          fill="#8B5CF6"
          stroke="#C4B5FD"
        />
      </g>
      <defs>
        <filter
          id="filter0_d_75_1093"
          x="0.791382"
          y="0"
          width="155.835"
          height="79.5114"
          filterUnits="userSpaceOnUse"
          color-interpolation-filters="sRGB"
        >
          <feFlood flood-opacity="0" result="BackgroundImageFix" />
          <feColorMatrix
            in="SourceAlpha"
            type="matrix"
            values="0 0 0 0 0 0 0 0 0 0 0 0 0 0 0 0 0 0 127 0"
            result="hardAlpha"
          />
          <feOffset dy="4" />
          <feGaussianBlur stdDeviation="2" />
          <feComposite in2="hardAlpha" operator="out" />
          <feColorMatrix
            type="matrix"
            values="0 0 0 0 0 0 0 0 0 0 0 0 0 0 0 0 0 0 0.25 0"
          />
          <feBlend
            mode="normal"
            in2="BackgroundImageFix"
            result="effect1_dropShadow_75_1093"
          />
          <feBlend
            mode="normal"
            in="SourceGraphic"
            in2="effect1_dropShadow_75_1093"
            result="shape"
          />
        </filter>
      </defs>
    </svg>